<?xml version="1.0" standalone="no"?>
<!DOCTYPE svg PUBLIC "-//W3C//DTD SVG 20010904//EN"
 "http://www.w3.org/TR/2001/REC-SVG-20010904/DTD/svg10.dtd">
<svg version="1.0" xmlns="http://www.w3.org/2000/svg"
 width="1024.000000pt" height="1024.000000pt" viewBox="0 0 1024.000000 1024.000000"
 preserveAspectRatio="xMidYMid meet">

<g transform="translate(0.000000,1024.000000) scale(0.100000,-0.100000)"
fill="#000000" stroke="none">
<path d="M0 5120 l0 -5120 5120 0 5120 0 0 5120 0 5120 -5120 0 -5120 0 0
-5120z m7289 2340 c23 -208 22 -205 59 -208 41 -4 42 -22 1 -22 l-31 0 6 -117
c4 -65 9 -136 12 -158 l5 -40 -104 109 -103 109 -29 -79 c-15 -43 -61 -158
-102 -254 -203 -478 -493 -893 -916 -1312 l-169 -168 93 0 c65 0 89 -3 79 -10
-8 -5 -57 -10 -108 -10 l-93 0 -52 -47 c-29 -26 -54 -49 -56 -50 -2 -1 25 -34
59 -73 35 -38 61 -72 58 -75 -2 -3 -42 17 -87 45 -45 27 -85 50 -87 50 -3 0
-42 -28 -87 -62 -168 -126 -461 -316 -642 -415 -302 -167 -790 -364 -890 -361
-22 1 -110 -17 -195 -39 -183 -49 -402 -87 -590 -104 -129 -11 -556 -7 -672 7
-88 11 -38 24 90 24 290 0 605 47 972 146 223 60 320 93 320 109 0 7 40 27 93
45 365 130 966 456 1260 683 32 25 37 34 32 56 -6 27 -39 61 -59 61 -7 0 -100
-56 -207 -124 -404 -257 -776 -443 -1150 -577 l-109 -39 0 78 0 78 -385 639
c-342 569 -421 708 -353 625 l20 -25 -18 32 c-10 18 -22 29 -27 26 -6 -3 -7
-1 -3 5 3 6 -8 34 -25 61 -30 50 -50 71 -29 30 7 -11 10 -23 7 -25 -3 -3 -53
75 -113 173 -59 98 -133 219 -164 268 -31 50 -68 108 -82 130 l-25 40 396 0
396 0 118 -205 c66 -113 194 -331 286 -485 92 -154 208 -351 257 -437 49 -87
91 -157 94 -157 3 0 73 115 155 256 83 141 191 324 240 407 50 84 151 258 225
389 l135 237 383 0 383 0 -80 -117 c-44 -64 -79 -118 -77 -120 2 -2 40 12 84
31 242 104 518 148 775 126 66 -6 123 -12 125 -14 10 -10 -188 -272 -384 -508
-67 -81 -128 -155 -136 -165 -7 -11 -35 -27 -63 -37 -143 -53 -296 -155 -398
-266 -57 -61 -114 -147 -104 -156 3 -3 21 2 41 10 21 9 38 11 41 5 4 -5 23 -9
45 -9 31 0 47 8 89 46 29 26 54 44 57 41 4 -3 -9 -32 -27 -63 l-33 -58 32 22
c74 54 317 280 428 399 273 295 477 565 674 893 60 100 190 355 190 374 0 4
-19 -10 -42 -33 -24 -22 -46 -41 -51 -41 -9 0 -7 2 31 64 l24 39 -38 -6 c-22
-3 -75 -9 -119 -13 l-80 -7 80 76 c44 41 90 83 103 94 l23 18 -36 43 c-20 23
-34 42 -30 42 4 0 26 -12 51 -26 38 -23 47 -24 62 -13 42 34 219 188 231 203
21 25 27 8 40 -114z m-439 -70 c0 -5 -7 -10 -15 -10 -8 0 -15 5 -15 10 0 6 7
10 15 10 8 0 15 -4 15 -10z m262 -933 c117 -63 249 -160 351 -257 l92 -87
-175 -184 c-96 -101 -202 -212 -236 -247 l-60 -64 -68 71 c-81 83 -188 159
-287 204 l-70 32 18 25 c31 41 246 378 298 468 26 45 50 82 54 82 3 0 41 -19
83 -43z m-1789 -1825 c32 -335 259 -667 562 -819 144 -73 331 -110 496 -99
244 16 469 115 646 284 l62 59 214 -216 c204 -205 242 -251 218 -266 -7 -4 -8
1 -5 12 5 14 4 15 -4 4 -6 -8 -8 -20 -5 -26 4 -13 -74 -85 -116 -107 -15 -7
-65 -40 -113 -74 -108 -77 -269 -159 -413 -212 -117 -43 -298 -83 -368 -81
-30 0 -11 6 63 19 116 21 248 58 212 59 -15 1 -21 5 -16 13 5 8 2 9 -10 5 -10
-4 -19 -1 -22 8 -4 8 -10 13 -14 10 -4 -3 -13 2 -20 10 -7 8 -18 15 -24 15 -6
0 -19 9 -29 20 -10 12 -22 18 -27 15 -6 -3 -10 1 -10 9 0 9 -4 17 -10 17 -5 1
-18 2 -27 3 -10 1 -29 8 -43 16 -14 9 -34 21 -45 27 -47 29 -115 57 -129 54
-5 -1 -16 5 -25 12 -9 8 -33 20 -53 28 -21 7 -38 16 -38 20 0 4 -8 6 -17 5
-10 -2 -20 0 -23 3 -3 4 -22 17 -42 30 -27 16 -38 19 -38 9 0 -8 -4 -6 -11 5
-6 9 -14 15 -18 12 -5 -2 -14 2 -21 11 -11 12 -15 12 -21 2 -7 -10 -9 -9 -9 5
0 14 -19 23 -35 15 -2 -2 -11 6 -19 17 -9 11 -16 16 -16 10 0 -5 -4 -4 -9 4
-5 8 -32 24 -60 36 -28 12 -48 25 -44 30 5 4 -2 5 -15 2 -12 -3 -20 -1 -16 4
3 5 -6 9 -19 9 -13 0 -32 9 -42 20 -10 11 -22 20 -26 20 -20 0 -138 63 -133
71 3 5 -4 9 -15 9 -11 0 -26 6 -33 13 -7 8 -19 12 -28 10 -8 -2 -28 10 -44 26
-17 17 -35 31 -42 31 -10 0 -63 26 -144 70 -14 8 -34 15 -44 17 -10 2 -25 11
-32 21 -7 9 -14 13 -14 7 0 -5 -5 -3 -10 5 -5 8 -13 15 -17 16 -4 0 -16 4 -25
7 -27 10 -52 18 -58 18 -3 0 -15 9 -27 21 -12 12 -27 17 -34 13 -8 -5 -10 -4
-5 3 6 11 -6 16 -27 13 -4 0 -6 4 -5 10 2 5 -15 16 -37 24 -22 8 -41 19 -43
24 -2 5 -10 7 -18 4 -7 -3 -16 1 -19 9 -4 10 -15 13 -32 10 -19 -4 -24 -2 -18
7 5 9 0 12 -16 9 -16 -2 -24 2 -24 12 0 8 -3 20 -8 25 -4 6 -21 30 -38 53 -17
24 -33 41 -36 38 -9 -8 53 -168 106 -274 164 -327 433 -599 746 -755 168 -83
317 -131 510 -162 83 -14 85 -14 25 -10 -222 14 -505 119 -734 273 -56 37
-105 66 -109 64 -5 -1 -6 2 -2 7 7 12 -29 33 -40 23 -3 -4 -5 0 -3 8 2 8 -3
14 -9 13 -7 -2 -12 2 -10 8 1 7 -18 27 -43 45 -25 18 -57 43 -72 54 -16 12
-54 54 -87 93 -119 147 -231 342 -286 502 -16 44 -32 84 -36 89 -4 5 -19 6
-33 2 l-26 -6 0 -582 c0 -514 -2 -580 -15 -562 -8 11 -15 14 -15 7 0 -10 -72
-13 -325 -13 l-325 0 0 25 c0 31 -17 33 -23 3 -2 -13 -5 196 -6 464 l-1 487
43 11 c371 96 653 202 994 374 93 47 215 114 273 150 58 35 108 65 111 65 3 1
9 -30 12 -67z m1110 -1549 c-13 -2 -33 -2 -45 0 -13 2 -3 4 22 4 25 0 35 -2
23 -4z m-976 -1224 c29 -6 55 -14 58 -19 25 -40 -514 -50 -584 -10 -67 37 365
61 526 29z m4248 -1116 c23 -60 96 -133 157 -158 27 -11 48 -23 48 -26 0 -4
-21 -14 -47 -24 -60 -23 -133 -96 -158 -157 -11 -27 -23 -48 -26 -48 -4 0 -14
21 -24 47 -23 60 -96 133 -157 158 -27 11 -48 23 -48 26 0 4 21 14 47 24 60
23 133 96 158 157 11 27 23 48 26 48 4 0 14 -21 24 -47z"/>
<path d="M4455 4234 c-95 -36 -384 -125 -472 -145 l-53 -12 0 -106 0 -106 28
-1 c33 0 124 -41 135 -60 4 -8 14 -14 22 -14 7 0 15 -4 17 -9 4 -12 155 -101
171 -101 7 0 17 -4 22 -9 18 -17 85 -51 100 -51 23 0 113 -62 124 -85 7 -14
10 37 12 170 2 105 4 228 4 275 2 118 -6 290 -14 289 -3 0 -46 -16 -96 -35z"/>
</g>
</svg>
